<svg width="256" height="256" viewBox="0 0 256 256" fill="none" xmlns="http://www.w3.org/2000/svg">
<path d="M128 221.333C108.667 221.333 94.6666 179.667 94.6666 128C94.6666 76.3333 108.667 34.6666 128 34.6666C147.333 34.6666 161.333 76.3333 161.333 128C161.333 179.667 147.333 221.333 128 221.333ZM128 214.667C141.667 214.667 154.667 176 154.667 128C154.667 80 141.667 41.3333 128 41.3333C114.333 41.3333 101.333 80 101.333 128C101.333 176 114.333 214.667 128 214.667Z" fill="#050D42"/>
<path d="M47.3333 174.667C37.3333 158 66.6667 125 111.333 98.9999C156 72.9999 199 64.6666 208.667 81.3332C218.333 97.9999 189.333 131 144.667 157C100 183 57 191.333 47.3333 174.667ZM53 171.333C60 183.333 100 175 141.333 151C182.667 127 210 96.6666 203 84.6666C196 72.6666 156 80.9999 114.667 105C73.3333 129 46 159.333 53 171.333Z" fill="#050D42"/>
<path d="M208.667 174.667C199 191.333 155.667 182.667 111.333 157C67 131.333 37.3334 97.9999 47.3334 81.3333C57.3334 64.6666 100.333 73.3333 144.667 98.9999C189 124.667 218.667 158 208.667 174.667ZM203 171.333C210 159.333 182.667 129 141.333 105C100 80.9999 59.6667 72.6666 53 84.6666C46.3334 96.6666 73.3334 127 114.667 151C156 175 196.333 183.333 203 171.333Z" fill="#050D42"/>
<path d="M129.5 145C138.833 145 146.167 137.667 146.167 128.333C146.167 119 138.833 111.667 129.5 111.667C120.167 111.667 112.833 119 112.833 128.333C112.833 137.667 120.167 145 129.5 145ZM179.5 86.6666C185.167 86.6666 189.5 82.3333 189.5 76.6666C189.5 71 185.167 66.6666 179.5 66.6666C173.833 66.6666 169.5 71 169.5 76.6666C169.5 82.3333 173.833 86.6666 179.5 86.6666ZM149.5 205C155.167 205 159.5 200.667 159.5 195C159.5 189.333 155.167 185 149.5 185C143.833 185 139.5 189.333 139.5 195C139.5 200.667 143.833 205 149.5 205ZM56.1667 115C61.8334 115 66.1667 110.667 66.1667 105C66.1667 99.3333 61.8334 95 56.1667 95C50.5001 95 46.1667 99.3333 46.1667 105C46.1667 110.667 50.5001 115 56.1667 115Z" fill="#2F4BFF"/>
</svg>
