<svg width="40" height="40" viewBox="0 0 40 40" fill="none" xmlns="http://www.w3.org/2000/svg">
<rect width="40" height="40" rx="20" fill="#382B29"/>
<g clip-path="url(#clip0_1_232)">
<path fill-rule="evenodd" clip-rule="evenodd" d="M26.4297 14.4016L20.1797 12.5266C19.9905 12.4698 19.7855 12.5058 19.627 12.6237C19.4685 12.7416 19.3751 12.9274 19.375 13.125V21.5828C18.0559 20.403 16.0916 20.306 14.6627 21.35C13.2338 22.394 12.7292 24.2949 13.4523 25.9102C14.1754 27.5254 15.9293 28.4152 17.6598 28.0449C19.3903 27.6745 20.6264 26.1447 20.625 24.375V17.7148L26.0703 19.3484C26.2595 19.4052 26.4644 19.3692 26.623 19.2513C26.7815 19.1334 26.8749 18.9476 26.875 18.75V15C26.8749 14.7241 26.6939 14.4809 26.4297 14.4016ZM16.875 26.875C15.4943 26.875 14.375 25.7557 14.375 24.375C14.375 22.9943 15.4943 21.875 16.875 21.875C18.2557 21.875 19.375 22.9943 19.375 24.375C19.375 25.7557 18.2557 26.875 16.875 26.875ZM25.625 17.9102L20.625 16.4102V13.9648L25.625 15.4688V17.9102Z" fill="white"/>
</g>
<defs>
<clipPath id="clip0_1_232">
<rect width="20" height="20" fill="white" transform="translate(10 10)"/>
</clipPath>
</defs>
</svg>
